<?xml version="1.0" encoding="iso-8859-1"?>
<!-- Generator: Adobe Illustrator 19.0.0, SVG Export Plug-In . SVG Version: 6.00 Build 0)  -->
<svg version="1.1" id="Capa_1" xmlns="http://www.w3.org/2000/svg" xmlns:xlink="http://www.w3.org/1999/xlink" x="0px" y="0px"
	 viewBox="0 0 512 512" style="enable-background:new 0 0 512 512;" xml:space="preserve">
<g>
	<g>
		<path d="M101.398,71.238H30c-16.542,0-30,13.458-30,30v40.993c0,16.542,13.458,30,30,30h71.398c16.542,0,30-13.458,30-30v-40.993
			C131.398,84.696,117.94,71.238,101.398,71.238z M101.398,142.231H30v-40.993h71.398l0.019,40.992
			C101.417,142.23,101.411,142.231,101.398,142.231z"/>
	</g>
</g>
<g>
	<g>
		<path d="M482,71.238H182.317c-16.542,0-30,13.458-30,30v40.993c0,16.542,13.458,30,30,30H482c16.542,0,30-13.458,30-30v-40.993
			C512,84.696,498.542,71.238,482,71.238z M482,142.231H182.317v-40.993H482l0.019,40.992
			C482.019,142.23,482.013,142.231,482,142.231z"/>
	</g>
</g>
<g>
	<g>
		<path d="M101.398,205.504H30c-16.542,0-30,13.458-30,30v40.992c0,16.542,13.458,30,30,30h71.398c16.542,0,30-13.458,30-30v-40.992
			C131.398,218.962,117.94,205.504,101.398,205.504z M101.398,276.496H30v-40.992h71.398l0.019,40.991
			C101.417,276.495,101.411,276.496,101.398,276.496z"/>
	</g>
</g>
<g>
	<g>
		<path d="M482,205.504H182.317c-16.542,0-30,13.458-30,30v40.992c0,16.542,13.458,30,30,30H482c16.542,0,30-13.458,30-30v-40.992
			C512,218.962,498.542,205.504,482,205.504z M482,276.496H182.317v-40.992H482l0.019,40.991
			C482.019,276.495,482.013,276.496,482,276.496z"/>
	</g>
</g>
<g>
	<g>
		<path d="M101.398,339.769H30c-16.542,0-30,13.458-30,30v40.993c0,16.542,13.458,30,30,30h71.398c16.542,0,30-13.458,30-30v-40.993
			C131.398,353.227,117.94,339.769,101.398,339.769z M101.398,410.762H30v-40.993h71.398l0.019,40.992
			C101.417,410.761,101.411,410.762,101.398,410.762z"/>
	</g>
</g>
<g>
	<g>
		<path d="M482,339.769H182.317c-16.542,0-30,13.458-30,30v40.993c0,16.542,13.458,30,30,30H482c16.542,0,30-13.458,30-30v-40.993
			C512,353.227,498.542,339.769,482,339.769z M482,410.762H182.317v-40.993H482l0.019,40.992
			C482.019,410.761,482.013,410.762,482,410.762z"/>
	</g>
</g>
<g>
</g>
<g>
</g>
<g>
</g>
<g>
</g>
<g>
</g>
<g>
</g>
<g>
</g>
<g>
</g>
<g>
</g>
<g>
</g>
<g>
</g>
<g>
</g>
<g>
</g>
<g>
</g>
<g>
</g>
</svg>
